{"asset":{"version":"2.0","generator":"THREE.GLTFExporter"},"scenes":[{"name":"default","nodes":[0]}],"scene":0,"nodes":[{"name":"default","mesh":0}],"bufferViews":[{"buffer":0,"byteOffset":0,"byteLength":792,"target":34962,"byteStride":12},{"buffer":0,"byteOffset":792,"byteLength":792,"target":34962,"byteStride":12},{"buffer":0,"byteOffset":1584,"byteLength":528,"target":34962,"byteStride":8},{"buffer":0,"byteOffset":2112,"byteLength":1056,"target":34962,"byteStride":16},{"buffer":0,"byteOffset":3168,"byteLength":132,"target":34963}],"buffers":[{"byteLength":3300,"uri":"data:application/octet-stream;base64,"}],"accessors":[{"bufferView":0,"componentType":5126,"count":66,"max":[1,2,0.2500000298023224],"min":[-1.1102230246251565e-16,0,-1],"type":"VEC3"},{"bufferView":1,"componentType":5126,"count":66,"max":[1,1,0.9701424837112427],"min":[-1,-1,-1],"type":"VEC3"},{"bufferView":2,"componentType":5126,"count":66,"max":[0.23437517881393433,0.2656251788139343],"min":[0.09375,0.04687201976776123],"type":"VEC2"},{"bufferView":3,"componentType":5126,"count":66,"max":[1,1,1,1],"min":[1,1,1,1],"type":"VEC4"},{"bufferView":4,"componentType":5123,"count":66,"max":[65],"min":[0],"type":"SCALAR"}],"materials":[{"pbrMetallicRoughness":{"metallicFactor":0,"roughnessFactor":1,"baseColorTexture":{"index":0}},"alphaMode":"MASK","alphaCutoff":0.01,"name":"DataPoint-Texture_1"}],"textures":[{"sampler":0,"source":0,"name":"DataPoint-Texture_1"}],"samplers":[{"magFilter":9728,"minFilter":9728,"wrapS":33071,"wrapT":33071}],"images":[{"mimeType":"image/png","uri":"data:image/png;base64,"}],"meshes":[{"primitives":[{"mode":4,"attributes":{"POSITION":0,"NORMAL":1,"TEXCOORD_0":2,"COLOR_0":3},"indices":4,"material":0}]}]}