{"asset":{"version":"2.0","generator":"THREE.GLTFExporter"},"scenes":[{"name":"default","nodes":[0]}],"scene":0,"nodes":[{"name":"default","mesh":0}],"bufferViews":[{"buffer":0,"byteOffset":0,"byteLength":421992,"target":34962,"byteStride":12},{"buffer":0,"byteOffset":421992,"byteLength":421992,"target":34962,"byteStride":12},{"buffer":0,"byteOffset":843984,"byteLength":281328,"target":34962,"byteStride":8},{"buffer":0,"byteOffset":1125312,"byteLength":562656,"target":34962,"byteStride":16},{"buffer":0,"byteOffset":1687968,"byteLength":70332,"target":34963}],"buffers":[{"byteLength":1758300,"uri":"data:application/octet-stream;base64,"}],"accessors":[{"bufferView":0,"componentType":5126,"count":35166,"max":[32,7,39],"min":[-12,-21,-15.999349594116211],"type":"VEC3"},{"bufferView":1,"componentType":5126,"count":35166,"max":[1,1,1],"min":[-1,-1,-1],"type":"VEC3"},{"bufferView":2,"componentType":5126,"count":35166,"max":[0.25,1],"min":[0,0],"type":"VEC2"},{"bufferView":3,"componentType":5126,"count":35166,"max":[1,1,1,1],"min":[1,1,1,1],"type":"VEC4"},{"bufferView":4,"componentType":5123,"count":35166,"max":[35165],"min":[0],"type":"SCALAR"}],"materials":[{"pbrMetallicRoughness":{"metallicFactor":0,"roughnessFactor":1,"baseColorTexture":{"index":0}},"alphaMode":"MASK","alphaCutoff":0.01,"name":"texture_GDD TileMapSheet"}],"textures":[{"sampler":0,"source":0,"name":"texture_GDD TileMapSheet"}],"samplers":[{"magFilter":9728,"minFilter":9728,"wrapS":33071,"wrapT":33071}],"images":[{"mimeType":"image/png","uri":"data:image/png;base64,"}],"meshes":[{"primitives":[{"mode":4,"attributes":{"POSITION":0,"NORMAL":1,"TEXCOORD_0":2,"COLOR_0":3},"indices":4,"material":0}]}]}